<?xml version="1.0" encoding="UTF-8" standalone="no"?>
<svg
   width="121"
   height="120"
   viewBox="0 0 121 120"
   fill="none"
   version="1.1"
   id="svg102"
   sodipodi:docname="logo.svg"
   inkscape:export-filename="../../../../../../../Dropbox/dev/4.1-verifyit/editor/assets/logo.png"
   inkscape:export-xdpi="96"
   inkscape:export-ydpi="96"
   inkscape:version="1.3.2 (091e20e, 2023-11-25)"
   xmlns:inkscape="http://www.inkscape.org/namespaces/inkscape"
   xmlns:sodipodi="http://sodipodi.sourceforge.net/DTD/sodipodi-0.dtd"
   xmlns="http://www.w3.org/2000/svg"
   xmlns:svg="http://www.w3.org/2000/svg">
  <defs
     id="defs102" />
  <sodipodi:namedview
     id="namedview102"
     pagecolor="#ffffff"
     bordercolor="#000000"
     borderopacity="0.25"
     inkscape:showpageshadow="2"
     inkscape:pageopacity="0.0"
     inkscape:pagecheckerboard="0"
     inkscape:deskcolor="#d1d1d1"
     inkscape:zoom="1.9666667"
     inkscape:cx="13.474576"
     inkscape:cy="69.152542"
     inkscape:window-width="1072"
     inkscape:window-height="609"
     inkscape:window-x="150"
     inkscape:window-y="89"
     inkscape:window-maximized="0"
     inkscape:current-layer="svg102" />
  <path
     d="M60.4821 119.116C93.375 119.116 120.04 92.4507 120.04 59.5578C120.04 26.6649 93.375 0 60.4821 0C27.5893 0 0.924316 26.6649 0.924316 59.5578C0.924316 92.4507 27.5893 119.116 60.4821 119.116Z"
     fill="#FFF3E6"
     id="path1"
     style="fill:#fff3e6;fill-opacity:0" />
  <mask
     id="mask0_445_14326"
     style="mask-type:luminance"
     maskUnits="userSpaceOnUse"
     x="12"
     y="12"
     width="94"
     height="95">
    <path
       d="M59.0808 28.4704C76.2234 28.4704 90.1605 42.4152 90.1605 59.5501C90.1605 76.6849 76.2157 90.6298 59.0808 90.6298C41.946 90.6298 28.0011 76.6849 28.0011 59.5501C28.0011 42.4152 41.946 28.4704 59.0808 28.4704ZM59.0808 12.8066C33.2663 12.8066 12.3374 33.7355 12.3374 59.5501C12.3374 85.3646 33.2663 106.293 59.0808 106.293C84.8954 106.293 105.824 85.3646 105.824 59.5501C105.824 33.7355 84.8954 12.8066 59.0808 12.8066Z"
       fill="white"
       id="path2" />
  </mask>
  <g
     mask="url(#mask0_445_14326)"
     id="g101">
    <path
       d="M173.225 11.7148H-12.1687V109.6H173.225V11.7148Z"
       fill="white"
       id="path3" />
    <path
       d="M173.225 11.7148H-12.1687V19.326H173.225V11.7148Z"
       fill="#D71218"
       id="path4" />
    <path
       d="M173.225 19.3262H-12.1687V26.9374H173.225V19.3262Z"
       fill="white"
       id="path5" />
    <path
       d="M173.225 26.9297H-12.1687V34.5409H173.225V26.9297Z"
       fill="#D71218"
       id="path6" />
    <path
       d="M173.225 34.541H-12.1687V42.1522H173.225V34.541Z"
       fill="white"
       id="path7" />
    <path
       d="M173.225 42.1445H-12.1687V49.7557H173.225V42.1445Z"
       fill="#D71218"
       id="path8" />
    <path
       d="M173.225 49.7554H-12.1687V57.3666H173.225V49.7554Z"
       fill="white"
       id="path9" />
    <path
       d="M173.225 57.3667H-12.1687V64.9779H173.225V57.3667Z"
       fill="#D71218"
       id="path10" />
    <path
       d="M173.225 64.9702H-12.1687V72.5814H173.225V64.9702Z"
       fill="white"
       id="path11" />
    <path
       d="M173.225 72.5815H-12.1687V80.1927H173.225V72.5815Z"
       fill="#D71218"
       id="path12" />
    <path
       d="M173.225 80.1851H-12.1687V87.7963H173.225V80.1851Z"
       fill="white"
       id="path13" />
    <path
       d="M173.225 87.7959H-12.1687V95.4071H173.225V87.7959Z"
       fill="#D71218"
       id="path14" />
    <path
       d="M173.225 95.3994H-12.1687V103.011H173.225V95.3994Z"
       fill="white"
       id="path15" />
    <path
       d="M173.225 101.997H-12.1687V109.608H173.225V101.997Z"
       fill="#D71218"
       id="path16" />
    <path
       d="M60.8152 11.6299H-12.1687V64.885H60.8152V11.6299Z"
       fill="#002A68"
       id="path17" />
    <path
       d="M48.6898 19.9302L49.2395 21.3781L50.7803 21.4478L49.5724 22.4156L49.9828 23.9022L48.6898 23.0583L47.4044 23.9022L47.8071 22.4156L46.6069 21.4478L48.1478 21.3781L48.6898 19.9302Z"
       fill="white"
       id="path18" />
    <path
       d="M54.7837 14.4868L55.3334 15.927L56.8665 16.0044L55.6664 16.9645L56.069 18.4511L54.7837 17.6072L53.4906 18.4511L53.901 16.9645L52.6931 16.0044L54.2339 15.927L54.7837 14.4868Z"
       fill="white"
       id="path19" />
    <path
       d="M48.6898 30.8242L49.2395 32.2644L50.7803 32.3418L49.5724 33.3097L49.9828 34.7963L48.6898 33.9523L47.4044 34.7963L47.8071 33.3097L46.6069 32.3418L48.1478 32.2644L48.6898 30.8242Z"
       fill="white"
       id="path20" />
    <path
       d="M54.7837 25.3813L55.3334 26.8215L56.8665 26.8989L55.6664 27.8591L56.069 29.3457L54.7837 28.5017L53.4906 29.3457L53.901 27.8591L52.6931 26.8989L54.2339 26.8215L54.7837 25.3813Z"
       fill="white"
       id="path21" />
    <path
       d="M48.6898 19.9302L49.2395 21.3781L50.7803 21.4478L49.5724 22.4156L49.9828 23.9022L48.6898 23.0583L47.4044 23.9022L47.8071 22.4156L46.6069 21.4478L48.1478 21.3781L48.6898 19.9302Z"
       fill="white"
       id="path22" />
    <path
       d="M48.6898 41.7183L49.2395 43.1584L50.7803 43.2359L49.5724 44.2037L49.9828 45.6903L48.6898 44.8464L47.4044 45.6903L47.8071 44.2037L46.6069 43.2359L48.1478 43.1584L48.6898 41.7183Z"
       fill="white"
       id="path23" />
    <path
       d="M54.7837 36.2754L55.3334 37.7156L56.8665 37.793L55.6664 38.7531L56.069 40.2397L54.7837 39.3958L53.4906 40.2397L53.901 38.7531L52.6931 37.793L54.2339 37.7156L54.7837 36.2754Z"
       fill="white"
       id="path24" />
    <path
       d="M48.6898 30.8242L49.2395 32.2644L50.7803 32.3418L49.5724 33.3097L49.9828 34.7963L48.6898 33.9523L47.4044 34.7963L47.8071 33.3097L46.6069 32.3418L48.1478 32.2644L48.6898 30.8242Z"
       fill="white"
       id="path25" />
    <path
       d="M48.6898 52.6128L49.2395 54.053L50.7803 54.1304L49.5724 55.0982L49.9828 56.5849L48.6898 55.7409L47.4044 56.5849L47.8071 55.0982L46.6069 54.1304L48.1478 54.053L48.6898 52.6128Z"
       fill="white"
       id="path26" />
    <path
       d="M54.7837 47.1694L55.3334 48.6096L56.8665 48.687L55.6664 49.6471L56.069 51.1338L54.7837 50.2898L53.4906 51.1338L53.901 49.6471L52.6931 48.687L54.2339 48.6096L54.7837 47.1694Z"
       fill="white"
       id="path27" />
    <path
       d="M48.6898 41.7183L49.2395 43.1584L50.7803 43.2359L49.5724 44.2037L49.9828 45.6903L48.6898 44.8464L47.4044 45.6903L47.8071 44.2037L46.6069 43.2359L48.1478 43.1584L48.6898 41.7183Z"
       fill="white"
       id="path28" />
    <path
       d="M54.7837 58.0635L55.3334 59.5036L56.8665 59.5811L55.6664 60.5412L56.069 62.0278L54.7837 61.1838L53.4906 62.0278L53.901 60.5412L52.6931 59.5811L54.2339 59.5036L54.7837 58.0635Z"
       fill="white"
       id="path29" />
    <path
       d="M48.6898 52.6128L49.2395 54.053L50.7803 54.1304L49.5724 55.0982L49.9828 56.5849L48.6898 55.7409L47.4044 56.5849L47.8071 55.0982L46.6069 54.1304L48.1478 54.053L48.6898 52.6128Z"
       fill="white"
       id="path30" />
    <path
       d="M48.6898 19.9302L49.2395 21.3781L50.7803 21.4478L49.5724 22.4156L49.9828 23.9022L48.6898 23.0583L47.4044 23.9022L47.8071 22.4156L46.6069 21.4478L48.1478 21.3781L48.6898 19.9302Z"
       fill="white"
       id="path31" />
    <path
       d="M36.5027 19.9302L37.0525 21.3781L38.5933 21.4478L37.3932 22.4156L37.7958 23.9022L36.5027 23.0583L35.2174 23.9022L35.6201 22.4156L34.4199 21.4478L35.9607 21.3781L36.5027 19.9302Z"
       fill="white"
       id="path32" />
    <path
       d="M42.5965 14.4868L43.1462 15.927L44.6871 16.0044L43.4792 16.9645L43.8895 18.4511L42.5965 17.6072L41.3112 18.4511L41.7138 16.9645L40.5137 16.0044L42.0545 15.927L42.5965 14.4868Z"
       fill="white"
       id="path33" />
    <path
       d="M48.6898 30.8242L49.2395 32.2644L50.7803 32.3418L49.5724 33.3097L49.9828 34.7963L48.6898 33.9523L47.4044 34.7963L47.8071 33.3097L46.6069 32.3418L48.1478 32.2644L48.6898 30.8242Z"
       fill="white"
       id="path34" />
    <path
       d="M36.5027 30.8242L37.0525 32.2644L38.5933 32.3418L37.3932 33.3097L37.7958 34.7963L36.5027 33.9523L35.2174 34.7963L35.6201 33.3097L34.4199 32.3418L35.9607 32.2644L36.5027 30.8242Z"
       fill="white"
       id="path35" />
    <path
       d="M48.6898 19.9302L49.2395 21.3781L50.7803 21.4478L49.5724 22.4156L49.9828 23.9022L48.6898 23.0583L47.4044 23.9022L47.8071 22.4156L46.6069 21.4478L48.1478 21.3781L48.6898 19.9302Z"
       fill="white"
       id="path36" />
    <path
       d="M42.5965 25.3813L43.1462 26.8215L44.6871 26.8989L43.4792 27.8591L43.8895 29.3457L42.5965 28.5017L41.3112 29.3457L41.7138 27.8591L40.5137 26.8989L42.0545 26.8215L42.5965 25.3813Z"
       fill="white"
       id="path37" />
    <path
       d="M36.5027 19.9302L37.0525 21.3781L38.5933 21.4478L37.3932 22.4156L37.7958 23.9022L36.5027 23.0583L35.2174 23.9022L35.6201 22.4156L34.4199 21.4478L35.9607 21.3781L36.5027 19.9302Z"
       fill="white"
       id="path38" />
    <path
       d="M48.6898 41.7183L49.2395 43.1584L50.7803 43.2359L49.5724 44.2037L49.9828 45.6903L48.6898 44.8464L47.4044 45.6903L47.8071 44.2037L46.6069 43.2359L48.1478 43.1584L48.6898 41.7183Z"
       fill="white"
       id="path39" />
    <path
       d="M36.5027 41.7183L37.0525 43.1584L38.5933 43.2359L37.3932 44.2037L37.7958 45.6903L36.5027 44.8464L35.2174 45.6903L35.6201 44.2037L34.4199 43.2359L35.9607 43.1584L36.5027 41.7183Z"
       fill="white"
       id="path40" />
    <path
       d="M48.6898 30.8242L49.2395 32.2644L50.7803 32.3418L49.5724 33.3097L49.9828 34.7963L48.6898 33.9523L47.4044 34.7963L47.8071 33.3097L46.6069 32.3418L48.1478 32.2644L48.6898 30.8242Z"
       fill="white"
       id="path41" />
    <path
       d="M42.5965 36.2754L43.1462 37.7156L44.6871 37.793L43.4792 38.7531L43.8895 40.2397L42.5965 39.3958L41.3112 40.2397L41.7138 38.7531L40.5137 37.793L42.0545 37.7156L42.5965 36.2754Z"
       fill="white"
       id="path42" />
    <path
       d="M36.5027 30.8242L37.0525 32.2644L38.5933 32.3418L37.3932 33.3097L37.7958 34.7963L36.5027 33.9523L35.2174 34.7963L35.6201 33.3097L34.4199 32.3418L35.9607 32.2644L36.5027 30.8242Z"
       fill="white"
       id="path43" />
    <path
       d="M48.6898 52.6128L49.2395 54.053L50.7803 54.1304L49.5724 55.0982L49.9828 56.5849L48.6898 55.7409L47.4044 56.5849L47.8071 55.0982L46.6069 54.1304L48.1478 54.053L48.6898 52.6128Z"
       fill="white"
       id="path44" />
    <path
       d="M36.5027 52.6128L37.0525 54.053L38.5933 54.1304L37.3932 55.0982L37.7958 56.5849L36.5027 55.7409L35.2174 56.5849L35.6201 55.0982L34.4199 54.1304L35.9607 54.053L36.5027 52.6128Z"
       fill="white"
       id="path45" />
    <path
       d="M48.6898 41.7183L49.2395 43.1584L50.7803 43.2359L49.5724 44.2037L49.9828 45.6903L48.6898 44.8464L47.4044 45.6903L47.8071 44.2037L46.6069 43.2359L48.1478 43.1584L48.6898 41.7183Z"
       fill="white"
       id="path46" />
    <path
       d="M42.5965 47.1694L43.1462 48.6096L44.6871 48.687L43.4792 49.6471L43.8895 51.1338L42.5965 50.2898L41.3112 51.1338L41.7138 49.6471L40.5137 48.687L42.0545 48.6096L42.5965 47.1694Z"
       fill="white"
       id="path47" />
    <path
       d="M36.5027 41.7183L37.0525 43.1584L38.5933 43.2359L37.3932 44.2037L37.7958 45.6903L36.5027 44.8464L35.2174 45.6903L35.6201 44.2037L34.4199 43.2359L35.9607 43.1584L36.5027 41.7183Z"
       fill="white"
       id="path48" />
    <path
       d="M48.6898 52.6128L49.2395 54.053L50.7803 54.1304L49.5724 55.0982L49.9828 56.5849L48.6898 55.7409L47.4044 56.5849L47.8071 55.0982L46.6069 54.1304L48.1478 54.053L48.6898 52.6128Z"
       fill="white"
       id="path49" />
    <path
       d="M42.5965 58.0635L43.1462 59.5036L44.6871 59.5811L43.4792 60.5412L43.8895 62.0278L42.5965 61.1838L41.3112 62.0278L41.7138 60.5412L40.5137 59.5811L42.0545 59.5036L42.5965 58.0635Z"
       fill="white"
       id="path50" />
    <path
       d="M36.5027 52.6128L37.0525 54.053L38.5933 54.1304L37.3932 55.0982L37.7958 56.5849L36.5027 55.7409L35.2174 56.5849L35.6201 55.0982L34.4199 54.1304L35.9607 54.053L36.5027 52.6128Z"
       fill="white"
       id="path51" />
    <path
       d="M36.5027 19.9302L37.0525 21.3781L38.5933 21.4478L37.3932 22.4156L37.7958 23.9022L36.5027 23.0583L35.2174 23.9022L35.6201 22.4156L34.4199 21.4478L35.9607 21.3781L36.5027 19.9302Z"
       fill="white"
       id="path52" />
    <path
       d="M24.3232 19.9302L24.8652 21.3781L26.406 21.4478L25.2059 22.4156L25.6085 23.9022L24.3232 23.0583L23.0302 23.9022L23.4328 22.4156L22.2327 21.4478L23.7735 21.3781L24.3232 19.9302Z"
       fill="white"
       id="path53" />
    <path
       d="M30.417 14.4868L30.959 15.927L32.4998 16.0044L31.2997 16.9645L31.7023 18.4511L30.417 17.6072L29.1239 18.4511L29.5266 16.9645L28.3264 16.0044L29.8672 15.927L30.417 14.4868Z"
       fill="white"
       id="path54" />
    <path
       d="M36.5027 30.8242L37.0525 32.2644L38.5933 32.3418L37.3932 33.3097L37.7958 34.7963L36.5027 33.9523L35.2174 34.7963L35.6201 33.3097L34.4199 32.3418L35.9607 32.2644L36.5027 30.8242Z"
       fill="white"
       id="path55" />
    <path
       d="M24.3232 30.8242L24.8652 32.2644L26.406 32.3418L25.2059 33.3097L25.6085 34.7963L24.3232 33.9523L23.0302 34.7963L23.4328 33.3097L22.2327 32.3418L23.7735 32.2644L24.3232 30.8242Z"
       fill="white"
       id="path56" />
    <path
       d="M36.5027 19.9302L37.0525 21.3781L38.5933 21.4478L37.3932 22.4156L37.7958 23.9022L36.5027 23.0583L35.2174 23.9022L35.6201 22.4156L34.4199 21.4478L35.9607 21.3781L36.5027 19.9302Z"
       fill="white"
       id="path57" />
    <path
       d="M30.417 25.3813L30.959 26.8215L32.4998 26.8989L31.2997 27.8591L31.7023 29.3457L30.417 28.5017L29.1239 29.3457L29.5266 27.8591L28.3264 26.8989L29.8672 26.8215L30.417 25.3813Z"
       fill="white"
       id="path58" />
    <path
       d="M24.3232 19.9302L24.8652 21.3781L26.406 21.4478L25.2059 22.4156L25.6085 23.9022L24.3232 23.0583L23.0302 23.9022L23.4328 22.4156L22.2327 21.4478L23.7735 21.3781L24.3232 19.9302Z"
       fill="white"
       id="path59" />
    <path
       d="M36.5027 41.7183L37.0525 43.1584L38.5933 43.2359L37.3932 44.2037L37.7958 45.6903L36.5027 44.8464L35.2174 45.6903L35.6201 44.2037L34.4199 43.2359L35.9607 43.1584L36.5027 41.7183Z"
       fill="white"
       id="path60" />
    <path
       d="M24.3232 41.7183L24.8652 43.1584L26.406 43.2359L25.2059 44.2037L25.6085 45.6903L24.3232 44.8464L23.0302 45.6903L23.4328 44.2037L22.2327 43.2359L23.7735 43.1584L24.3232 41.7183Z"
       fill="white"
       id="path61" />
    <path
       d="M36.5027 30.8242L37.0525 32.2644L38.5933 32.3418L37.3932 33.3097L37.7958 34.7963L36.5027 33.9523L35.2174 34.7963L35.6201 33.3097L34.4199 32.3418L35.9607 32.2644L36.5027 30.8242Z"
       fill="white"
       id="path62" />
    <path
       d="M30.417 36.2754L30.959 37.7156L32.4998 37.793L31.2997 38.7531L31.7023 40.2397L30.417 39.3958L29.1239 40.2397L29.5266 38.7531L28.3264 37.793L29.8672 37.7156L30.417 36.2754Z"
       fill="white"
       id="path63" />
    <path
       d="M24.3232 30.8242L24.8652 32.2644L26.406 32.3418L25.2059 33.3097L25.6085 34.7963L24.3232 33.9523L23.0302 34.7963L23.4328 33.3097L22.2327 32.3418L23.7735 32.2644L24.3232 30.8242Z"
       fill="white"
       id="path64" />
    <path
       d="M36.5027 52.6128L37.0525 54.053L38.5933 54.1304L37.3932 55.0982L37.7958 56.5849L36.5027 55.7409L35.2174 56.5849L35.6201 55.0982L34.4199 54.1304L35.9607 54.053L36.5027 52.6128Z"
       fill="white"
       id="path65" />
    <path
       d="M24.3232 52.6128L24.8652 54.053L26.406 54.1304L25.2059 55.0982L25.6085 56.5849L24.3232 55.7409L23.0302 56.5849L23.4328 55.0982L22.2327 54.1304L23.7735 54.053L24.3232 52.6128Z"
       fill="white"
       id="path66" />
    <path
       d="M36.5027 41.7183L37.0525 43.1584L38.5933 43.2359L37.3932 44.2037L37.7958 45.6903L36.5027 44.8464L35.2174 45.6903L35.6201 44.2037L34.4199 43.2359L35.9607 43.1584L36.5027 41.7183Z"
       fill="white"
       id="path67" />
    <path
       d="M30.417 47.1694L30.959 48.6096L32.4998 48.687L31.2997 49.6471L31.7023 51.1338L30.417 50.2898L29.1239 51.1338L29.5266 49.6471L28.3264 48.687L29.8672 48.6096L30.417 47.1694Z"
       fill="white"
       id="path68" />
    <path
       d="M24.3232 41.7183L24.8652 43.1584L26.406 43.2359L25.2059 44.2037L25.6085 45.6903L24.3232 44.8464L23.0302 45.6903L23.4328 44.2037L22.2327 43.2359L23.7735 43.1584L24.3232 41.7183Z"
       fill="white"
       id="path69" />
    <path
       d="M36.5027 52.6128L37.0525 54.053L38.5933 54.1304L37.3932 55.0982L37.7958 56.5849L36.5027 55.7409L35.2174 56.5849L35.6201 55.0982L34.4199 54.1304L35.9607 54.053L36.5027 52.6128Z"
       fill="white"
       id="path70" />
    <path
       d="M30.417 58.0635L30.959 59.5036L32.4998 59.5811L31.2997 60.5412L31.7023 62.0278L30.417 61.1838L29.1239 62.0278L29.5266 60.5412L28.3264 59.5811L29.8672 59.5036L30.417 58.0635Z"
       fill="white"
       id="path71" />
    <path
       d="M24.3232 52.6128L24.8652 54.053L26.406 54.1304L25.2059 55.0982L25.6085 56.5849L24.3232 55.7409L23.0302 56.5849L23.4328 55.0982L22.2327 54.1304L23.7735 54.053L24.3232 52.6128Z"
       fill="white"
       id="path72" />
    <path
       d="M24.3232 19.9302L24.8652 21.3781L26.406 21.4478L25.2059 22.4156L25.6085 23.9022L24.3232 23.0583L23.0302 23.9022L23.4328 22.4156L22.2327 21.4478L23.7735 21.3781L24.3232 19.9302Z"
       fill="white"
       id="path73" />
    <path
       d="M12.136 19.9302L12.6858 21.3781L14.2189 21.4478L13.0187 22.4156L13.4214 23.9022L12.136 23.0583L10.843 23.9022L11.2534 22.4156L10.0532 21.4478L11.5863 21.3781L12.136 19.9302Z"
       fill="white"
       id="path74" />
    <path
       d="M18.2297 14.4868L18.7717 15.927L20.3126 16.0044L19.1124 16.9645L19.515 18.4511L18.2297 17.6072L16.9367 18.4511L17.3471 16.9645L16.1392 16.0044L17.68 15.927L18.2297 14.4868Z"
       fill="white"
       id="path75" />
    <path
       d="M24.3232 30.8242L24.8652 32.2644L26.406 32.3418L25.2059 33.3097L25.6085 34.7963L24.3232 33.9523L23.0302 34.7963L23.4328 33.3097L22.2327 32.3418L23.7735 32.2644L24.3232 30.8242Z"
       fill="white"
       id="path76" />
    <path
       d="M12.136 30.8242L12.6858 32.2644L14.2189 32.3418L13.0187 33.3097L13.4214 34.7963L12.136 33.9523L10.843 34.7963L11.2534 33.3097L10.0532 32.3418L11.5863 32.2644L12.136 30.8242Z"
       fill="white"
       id="path77" />
    <path
       d="M24.3232 19.9302L24.8652 21.3781L26.406 21.4478L25.2059 22.4156L25.6085 23.9022L24.3232 23.0583L23.0302 23.9022L23.4328 22.4156L22.2327 21.4478L23.7735 21.3781L24.3232 19.9302Z"
       fill="white"
       id="path78" />
    <path
       d="M18.2297 25.3813L18.7717 26.8215L20.3126 26.8989L19.1124 27.8591L19.515 29.3457L18.2297 28.5017L16.9367 29.3457L17.3471 27.8591L16.1392 26.8989L17.68 26.8215L18.2297 25.3813Z"
       fill="white"
       id="path79" />
    <path
       d="M12.136 19.9302L12.6858 21.3781L14.2189 21.4478L13.0187 22.4156L13.4214 23.9022L12.136 23.0583L10.843 23.9022L11.2534 22.4156L10.0532 21.4478L11.5863 21.3781L12.136 19.9302Z"
       fill="white"
       id="path80" />
    <path
       d="M24.3232 41.7183L24.8652 43.1584L26.406 43.2359L25.2059 44.2037L25.6085 45.6903L24.3232 44.8464L23.0302 45.6903L23.4328 44.2037L22.2327 43.2359L23.7735 43.1584L24.3232 41.7183Z"
       fill="white"
       id="path81" />
    <path
       d="M12.136 41.7183L12.6858 43.1584L14.2189 43.2359L13.0187 44.2037L13.4214 45.6903L12.136 44.8464L10.843 45.6903L11.2534 44.2037L10.0532 43.2359L11.5863 43.1584L12.136 41.7183Z"
       fill="white"
       id="path82" />
    <path
       d="M24.3232 30.8242L24.8652 32.2644L26.406 32.3418L25.2059 33.3097L25.6085 34.7963L24.3232 33.9523L23.0302 34.7963L23.4328 33.3097L22.2327 32.3418L23.7735 32.2644L24.3232 30.8242Z"
       fill="white"
       id="path83" />
    <path
       d="M18.2297 36.2754L18.7717 37.7156L20.3126 37.793L19.1124 38.7531L19.515 40.2397L18.2297 39.3958L16.9367 40.2397L17.3471 38.7531L16.1392 37.793L17.68 37.7156L18.2297 36.2754Z"
       fill="white"
       id="path84" />
    <path
       d="M12.136 30.8242L12.6858 32.2644L14.2189 32.3418L13.0187 33.3097L13.4214 34.7963L12.136 33.9523L10.843 34.7963L11.2534 33.3097L10.0532 32.3418L11.5863 32.2644L12.136 30.8242Z"
       fill="white"
       id="path85" />
    <path
       d="M24.3232 52.6128L24.8652 54.053L26.406 54.1304L25.2059 55.0982L25.6085 56.5849L24.3232 55.7409L23.0302 56.5849L23.4328 55.0982L22.2327 54.1304L23.7735 54.053L24.3232 52.6128Z"
       fill="white"
       id="path86" />
    <path
       d="M12.136 52.6128L12.6858 54.053L14.2189 54.1304L13.0187 55.0982L13.4214 56.5849L12.136 55.7409L10.843 56.5849L11.2534 55.0982L10.0532 54.1304L11.5863 54.053L12.136 52.6128Z"
       fill="white"
       id="path87" />
    <path
       d="M24.3232 41.7183L24.8652 43.1584L26.406 43.2359L25.2059 44.2037L25.6085 45.6903L24.3232 44.8464L23.0302 45.6903L23.4328 44.2037L22.2327 43.2359L23.7735 43.1584L24.3232 41.7183Z"
       fill="white"
       id="path88" />
    <path
       d="M18.2297 47.1694L18.7717 48.6096L20.3126 48.687L19.1124 49.6471L19.515 51.1338L18.2297 50.2898L16.9367 51.1338L17.3471 49.6471L16.1392 48.687L17.68 48.6096L18.2297 47.1694Z"
       fill="white"
       id="path89" />
    <path
       d="M12.136 41.7183L12.6858 43.1584L14.2189 43.2359L13.0187 44.2037L13.4214 45.6903L12.136 44.8464L10.843 45.6903L11.2534 44.2037L10.0532 43.2359L11.5863 43.1584L12.136 41.7183Z"
       fill="white"
       id="path90" />
    <path
       d="M24.3232 52.6128L24.8652 54.053L26.406 54.1304L25.2059 55.0982L25.6085 56.5849L24.3232 55.7409L23.0302 56.5849L23.4328 55.0982L22.2327 54.1304L23.7735 54.053L24.3232 52.6128Z"
       fill="white"
       id="path91" />
    <path
       d="M18.2297 58.0635L18.7717 59.5036L20.3126 59.5811L19.1124 60.5412L19.515 62.0278L18.2297 61.1838L16.9367 62.0278L17.3471 60.5412L16.1392 59.5811L17.68 59.5036L18.2297 58.0635Z"
       fill="white"
       id="path92" />
    <path
       d="M12.136 52.6128L12.6858 54.053L14.2189 54.1304L13.0187 55.0982L13.4214 56.5849L12.136 55.7409L10.843 56.5849L11.2534 55.0982L10.0532 54.1304L11.5863 54.053L12.136 52.6128Z"
       fill="white"
       id="path93" />
    <path
       d="M12.136 19.9302L12.6858 21.3781L14.2189 21.4478L13.0187 22.4156L13.4214 23.9022L12.136 23.0583L10.843 23.9022L11.2534 22.4156L10.0532 21.4478L11.5863 21.3781L12.136 19.9302Z"
       fill="white"
       id="path94" />
    <path
       d="M12.136 30.8242L12.6858 32.2644L14.2189 32.3418L13.0187 33.3097L13.4214 34.7963L12.136 33.9523L10.843 34.7963L11.2534 33.3097L10.0532 32.3418L11.5863 32.2644L12.136 30.8242Z"
       fill="white"
       id="path95" />
    <path
       d="M12.136 19.9302L12.6858 21.3781L14.2189 21.4478L13.0187 22.4156L13.4214 23.9022L12.136 23.0583L10.843 23.9022L11.2534 22.4156L10.0532 21.4478L11.5863 21.3781L12.136 19.9302Z"
       fill="white"
       id="path96" />
    <path
       d="M12.136 41.7183L12.6858 43.1584L14.2189 43.2359L13.0187 44.2037L13.4214 45.6903L12.136 44.8464L10.843 45.6903L11.2534 44.2037L10.0532 43.2359L11.5863 43.1584L12.136 41.7183Z"
       fill="white"
       id="path97" />
    <path
       d="M12.136 30.8242L12.6858 32.2644L14.2189 32.3418L13.0187 33.3097L13.4214 34.7963L12.136 33.9523L10.843 34.7963L11.2534 33.3097L10.0532 32.3418L11.5863 32.2644L12.136 30.8242Z"
       fill="white"
       id="path98" />
    <path
       d="M12.136 52.6128L12.6858 54.053L14.2189 54.1304L13.0187 55.0982L13.4214 56.5849L12.136 55.7409L10.843 56.5849L11.2534 55.0982L10.0532 54.1304L11.5863 54.053L12.136 52.6128Z"
       fill="white"
       id="path99" />
    <path
       d="M12.136 41.7183L12.6858 43.1584L14.2189 43.2359L13.0187 44.2037L13.4214 45.6903L12.136 44.8464L10.843 45.6903L11.2534 44.2037L10.0532 43.2359L11.5863 43.1584L12.136 41.7183Z"
       fill="white"
       id="path100" />
    <path
       d="M12.136 52.6128L12.6858 54.053L14.2189 54.1304L13.0187 55.0982L13.4214 56.5849L12.136 55.7409L10.843 56.5849L11.2534 55.0982L10.0532 54.1304L11.5863 54.053L12.136 52.6128Z"
       fill="white"
       id="path101" />
  </g>
  <path
     d="M55.7513 84.1877L33.4907 56.7858L45.8947 46.7047L57.2922 60.7347L97.6478 22.6245L108.619 34.2465L55.7513 84.1877Z"
     fill="#16619E"
     id="path102" />
</svg>
